<svg width="512" height="512" viewBox="0 0 512 512" fill="none" xmlns="http://www.w3.org/2000/svg">
<mask id="path-1-inside-1_1_12" fill="white">
<path d="M136.301 320.576C124.332 316.943 112.349 309.909 101.844 303.417C92.7667 297.802 85.1315 290.842 78.5285 282.493C75.8126 279.056 73.2431 275.847 71.6766 271.782C70.8493 269.625 70.9006 266.467 73.2212 265.443C75.6589 264.368 78.5358 265.187 80.9662 266.057C86.0026 267.87 90.8561 269.603 96.5294 269.735C78.6968 255.12 66.3107 244.314 55.4252 223.828C45.5426 205.229 36.7288 178.923 33.4127 158.181C32.7465 154.014 32.4317 150.015 32.0291 145.877C31.8168 143.72 32.7758 141.797 34.5839 140.949C39.0128 138.865 42.2484 144.553 45.1107 148.487C50.4473 155.805 56.9332 161.756 64.0779 167.306C68.0822 170.42 72.0499 173.213 76.7935 175.004C56.8234 149.371 45.9526 119.089 46.0404 86.4663C46.0624 77.7295 46.5894 69.3436 48.8368 60.9212C49.5908 58.1137 51.8382 51.8408 55.696 52.2136C57.9361 56.1543 59.6125 60.0951 61.4938 64.3136C66.8451 76.3258 73.7848 87.2486 83.0598 96.563C86.8518 100.365 90.3437 104.108 94.3919 107.5C117.063 126.524 142.414 140.547 169.302 152.639C177.018 156.105 184.367 159.278 191.614 163.548C200.963 169.053 208.305 175.991 209.198 187.411C209.506 191.308 209.176 195.483 208.093 199.146C207.134 202.399 204.169 203.876 201.299 202.955C198.13 201.939 195.055 201.156 191.819 200.403C188.584 199.65 184.777 200.038 182.427 202.67C180.766 204.527 179.829 207.217 179.609 209.791C178.943 217.533 179.58 224.961 180.656 232.704C182.786 248.043 189.323 262.036 199.608 273.522C204.506 278.991 209.191 283.977 215.003 288.502C217.939 290.783 221.211 293.511 224.974 294.395C230.047 293.81 234.102 288.736 234.483 283.933C234.607 282.31 233.399 281.191 232.265 281.023C228.67 280.482 229.732 286.711 225.75 288.597C223.663 289.584 221.218 288.605 219.476 287.106C213.634 282.061 209.513 274.86 208.957 267.139C208.598 262.087 211.716 258.278 216.453 257.372C218.532 256.977 220.706 256.918 222.939 257.028C232.214 257.467 229.249 250.207 238.268 246.792C252.396 241.441 260.368 242.391 273.86 234.685C276.312 233.289 279.116 232.653 281.963 233.186C284.072 233.581 285.667 240.519 281.956 245.535L277.425 251.662C275.836 253.811 275.821 256.077 276.4 258.651L280.433 276.556C281.817 282.712 284.247 292.348 289.489 296.333C294.95 293.277 300.089 290.535 304.832 286.587C312.511 280.197 319.085 272.557 323.602 263.513C330.22 250.258 333.506 235.614 333.704 220.904C333.785 215.055 332.277 209.754 329.524 204.863C327.482 201.237 323.485 200.155 319.554 201.31C317.028 202.055 314.627 202.925 311.918 203.24C310.008 203.459 307.014 202.991 306.106 201.164C299.239 187.36 309.232 172.248 320.74 164.133C328.009 159.007 335.607 154.884 343.587 150.856L370.899 137.074C398.453 123.176 414.785 111.843 435.597 88.8425C442.786 80.9026 448.32 72.195 452.829 62.5808C454.425 59.1812 457.2 53.8221 459.667 51L460.494 51.424L459.82 52.1844C459.008 53.1056 462.148 54.29 463.407 58.7352C464.432 62.3396 465.362 65.9586 465.494 69.7092L465.889 80.8879L466.116 95.9928C466.248 104.832 465.494 113.642 463.012 122.269C458.957 136.35 452.785 149.371 445.406 161.954C442.874 166.275 439.894 169.894 436.959 173.915L436.6 174.397C436.541 174.478 436.549 174.77 436.644 174.741C436.739 174.712 437.061 174.609 437.2 174.529C448.562 168.241 457.968 159.629 465.867 149.393C468.51 145.964 471.467 143.12 475.376 141.227C476.687 140.591 478.495 142.521 478.912 143.698C480.135 147.171 480.259 150.578 479.622 154.306C477.155 168.724 473.832 182.674 469.315 196.601C464.696 210.836 457.009 224.713 448.869 237.215C439.213 252.042 429.887 258.008 416.403 269.026C422.018 269.157 436.556 262.175 440.033 267.614C442.661 271.723 436.446 279.554 433.46 282.8C417.882 299.747 400.503 312.3 378.234 319.29L360.16 324.956L371.236 326.93C373.395 327.317 375.599 328.012 377.502 328.97C379.962 330.205 380.525 333.035 379.003 335.323C377.751 337.202 375.936 338.788 373.864 340.031C363.996 345.939 353.14 349.331 341.771 351.364L329.319 353.586C328.953 353.652 328.228 354.244 328.258 354.529C328.367 355.633 330.864 356.043 331.435 358.828C331.647 359.888 331.164 362.235 330.161 362.827L310.879 369.174C300.198 372.69 290.909 378.663 282.944 386.669C291.97 389.308 300.66 391.275 307.365 398.711C315.74 408.003 315.535 422.523 307.548 424.007C305.52 424.38 304.276 422.64 302.841 421.075L296.641 431.867C295.865 433.212 294.562 434.484 293.376 435.369C291.582 436.699 289.306 436.509 287.783 434.967C283.845 430.975 284.489 429.169 280.119 425.638C277.739 426.193 282.439 428.84 284.496 434.243C286.743 440.143 278.149 448.178 273.969 451.519C269.511 455.079 260.119 461.63 254.336 459.627C249.622 457.997 245.449 455.562 241.723 452.316L232.748 444.5C230.252 442.329 228.092 439.733 226.87 436.838L227.36 436.122L227.704 435.61C229.637 432.744 231.145 430.594 232.536 426.873L231.796 426.932C229.066 430.207 226.804 433.219 224.286 436.59C223.539 437.591 221.848 437.058 220.904 436.429C215.486 432.832 212.024 427.385 210.765 420.9L210.04 420.607C207.639 422.201 205.304 423.181 202.441 423.78C198.225 417.171 200.348 405.846 204.96 399.741C212.932 389.177 230.984 388.168 229.981 387.334C229.82 387.196 229.373 386.83 229.22 386.684C219.666 377.428 208.225 370.994 195.392 367.477C191.922 366.527 181.908 363.683 180.561 360.788C180.026 359.647 180.143 357.615 180.956 356.715L183.394 354.025C175.671 353.447 168.043 351.868 160.327 349.799C151.462 347.43 140.115 343.314 134.259 335.996C133.549 335.111 133.256 333.064 133.578 331.996C134.398 329.269 139.434 328.114 142.026 327.661L151.403 326.031C151.528 326.009 152.113 325.753 152.238 325.702C152.355 325.658 152.106 325.482 151.894 325.314L136.294 320.576H136.301Z"/>
</mask>
<path d="M136.301 320.576C124.332 316.943 112.349 309.909 101.844 303.417C92.7667 297.802 85.1315 290.842 78.5285 282.493C75.8126 279.056 73.2431 275.847 71.6766 271.782C70.8493 269.625 70.9006 266.467 73.2212 265.443C75.6589 264.368 78.5358 265.187 80.9662 266.057C86.0026 267.87 90.8561 269.603 96.5294 269.735C78.6968 255.12 66.3107 244.314 55.4252 223.828C45.5426 205.229 36.7288 178.923 33.4127 158.181C32.7465 154.014 32.4317 150.015 32.0291 145.877C31.8168 143.72 32.7758 141.797 34.5839 140.949C39.0128 138.865 42.2484 144.553 45.1107 148.487C50.4473 155.805 56.9332 161.756 64.0779 167.306C68.0822 170.42 72.0499 173.213 76.7935 175.004C56.8234 149.371 45.9526 119.089 46.0404 86.4663C46.0624 77.7295 46.5894 69.3436 48.8368 60.9212C49.5908 58.1137 51.8382 51.8408 55.696 52.2136C57.9361 56.1543 59.6125 60.0951 61.4938 64.3136C66.8451 76.3258 73.7848 87.2486 83.0598 96.563C86.8518 100.365 90.3437 104.108 94.3919 107.5C117.063 126.524 142.414 140.547 169.302 152.639C177.018 156.105 184.367 159.278 191.614 163.548C200.963 169.053 208.305 175.991 209.198 187.411C209.506 191.308 209.176 195.483 208.093 199.146C207.134 202.399 204.169 203.876 201.299 202.955C198.13 201.939 195.055 201.156 191.819 200.403C188.584 199.65 184.777 200.038 182.427 202.67C180.766 204.527 179.829 207.217 179.609 209.791C178.943 217.533 179.58 224.961 180.656 232.704C182.786 248.043 189.323 262.036 199.608 273.522C204.506 278.991 209.191 283.977 215.003 288.502C217.939 290.783 221.211 293.511 224.974 294.395C230.047 293.81 234.102 288.736 234.483 283.933C234.607 282.31 233.399 281.191 232.265 281.023C228.67 280.482 229.732 286.711 225.75 288.597C223.663 289.584 221.218 288.605 219.476 287.106C213.634 282.061 209.513 274.86 208.957 267.139C208.598 262.087 211.716 258.278 216.453 257.372C218.532 256.977 220.706 256.918 222.939 257.028C232.214 257.467 229.249 250.207 238.268 246.792C252.396 241.441 260.368 242.391 273.86 234.685C276.312 233.289 279.116 232.653 281.963 233.186C284.072 233.581 285.667 240.519 281.956 245.535L277.425 251.662C275.836 253.811 275.821 256.077 276.4 258.651L280.433 276.556C281.817 282.712 284.247 292.348 289.489 296.333C294.95 293.277 300.089 290.535 304.832 286.587C312.511 280.197 319.085 272.557 323.602 263.513C330.22 250.258 333.506 235.614 333.704 220.904C333.785 215.055 332.277 209.754 329.524 204.863C327.482 201.237 323.485 200.155 319.554 201.31C317.028 202.055 314.627 202.925 311.918 203.24C310.008 203.459 307.014 202.991 306.106 201.164C299.239 187.36 309.232 172.248 320.74 164.133C328.009 159.007 335.607 154.884 343.587 150.856L370.899 137.074C398.453 123.176 414.785 111.843 435.597 88.8425C442.786 80.9026 448.32 72.195 452.829 62.5808C454.425 59.1812 457.2 53.8221 459.667 51L460.494 51.424L459.82 52.1844C459.008 53.1056 462.148 54.29 463.407 58.7352C464.432 62.3396 465.362 65.9586 465.494 69.7092L465.889 80.8879L466.116 95.9928C466.248 104.832 465.494 113.642 463.012 122.269C458.957 136.35 452.785 149.371 445.406 161.954C442.874 166.275 439.894 169.894 436.959 173.915L436.6 174.397C436.541 174.478 436.549 174.77 436.644 174.741C436.739 174.712 437.061 174.609 437.2 174.529C448.562 168.241 457.968 159.629 465.867 149.393C468.51 145.964 471.467 143.12 475.376 141.227C476.687 140.591 478.495 142.521 478.912 143.698C480.135 147.171 480.259 150.578 479.622 154.306C477.155 168.724 473.832 182.674 469.315 196.601C464.696 210.836 457.009 224.713 448.869 237.215C439.213 252.042 429.887 258.008 416.403 269.026C422.018 269.157 436.556 262.175 440.033 267.614C442.661 271.723 436.446 279.554 433.46 282.8C417.882 299.747 400.503 312.3 378.234 319.29L360.16 324.956L371.236 326.93C373.395 327.317 375.599 328.012 377.502 328.97C379.962 330.205 380.525 333.035 379.003 335.323C377.751 337.202 375.936 338.788 373.864 340.031C363.996 345.939 353.14 349.331 341.771 351.364L329.319 353.586C328.953 353.652 328.228 354.244 328.258 354.529C328.367 355.633 330.864 356.043 331.435 358.828C331.647 359.888 331.164 362.235 330.161 362.827L310.879 369.174C300.198 372.69 290.909 378.663 282.944 386.669C291.97 389.308 300.66 391.275 307.365 398.711C315.74 408.003 315.535 422.523 307.548 424.007C305.52 424.38 304.276 422.64 302.841 421.075L296.641 431.867C295.865 433.212 294.562 434.484 293.376 435.369C291.582 436.699 289.306 436.509 287.783 434.967C283.845 430.975 284.489 429.169 280.119 425.638C277.739 426.193 282.439 428.84 284.496 434.243C286.743 440.143 278.149 448.178 273.969 451.519C269.511 455.079 260.119 461.63 254.336 459.627C249.622 457.997 245.449 455.562 241.723 452.316L232.748 444.5C230.252 442.329 228.092 439.733 226.87 436.838L227.36 436.122L227.704 435.61C229.637 432.744 231.145 430.594 232.536 426.873L231.796 426.932C229.066 430.207 226.804 433.219 224.286 436.59C223.539 437.591 221.848 437.058 220.904 436.429C215.486 432.832 212.024 427.385 210.765 420.9L210.04 420.607C207.639 422.201 205.304 423.181 202.441 423.78C198.225 417.171 200.348 405.846 204.96 399.741C212.932 389.177 230.984 388.168 229.981 387.334C229.82 387.196 229.373 386.83 229.22 386.684C219.666 377.428 208.225 370.994 195.392 367.477C191.922 366.527 181.908 363.683 180.561 360.788C180.026 359.647 180.143 357.615 180.956 356.715L183.394 354.025C175.671 353.447 168.043 351.868 160.327 349.799C151.462 347.43 140.115 343.314 134.259 335.996C133.549 335.111 133.256 333.064 133.578 331.996C134.398 329.269 139.434 328.114 142.026 327.661L151.403 326.031C151.528 326.009 152.113 325.753 152.238 325.702C152.355 325.658 152.106 325.482 151.894 325.314L136.294 320.576H136.301Z" stroke="black" stroke-width="10" mask="url(#path-1-inside-1_1_12)"/>
</svg>
