<svg width="412" height="412" viewBox="0 0 412 412" fill="none" xmlns="http://www.w3.org/2000/svg">
<path fill-rule="evenodd" clip-rule="evenodd" d="M412 128.314C412 123.423 412.002 118.531 411.972 113.64C411.947 109.519 411.9 105.4 411.788 101.281C411.546 92.3047 411.016 83.2512 409.42 74.3747C407.801 65.3703 405.157 56.9898 400.991 48.8083C396.895 40.7669 391.544 33.4084 385.16 27.0289C378.778 20.6494 371.417 15.3024 363.373 11.209C355.183 7.04147 346.793 4.39848 337.779 2.77999C328.902 1.186 319.846 0.657498 310.869 0.414999C306.748 0.303499 302.626 0.256499 298.504 0.230999C293.61 0.200999 288.716 0.203499 283.822 0.203499L226.998 0H184.499L128.681 0.203499C123.777 0.203499 118.874 0.200999 113.97 0.230999C109.839 0.256499 105.71 0.303499 101.581 0.414999C92.5833 0.657498 83.5069 1.1865 74.6084 2.78249C65.582 4.40048 57.1801 7.04247 48.9791 11.207C40.9177 15.3009 33.5413 20.6484 27.1453 27.0289C20.7503 33.4079 15.3899 40.7649 11.2864 48.8048C7.10845 56.9903 4.45947 65.3758 2.83648 74.3852C1.23849 83.2582 0.708995 92.3087 0.465497 101.281C0.354497 105.4 0.306498 109.52 0.281498 113.64C0.251498 118.532 0 124.608 0 129.5L0.00149999 184.544L0 227.499L0.253998 283.713C0.253998 288.611 0.251998 293.509 0.281498 298.407C0.306498 302.533 0.354497 306.658 0.465997 310.783C0.708995 319.771 1.23949 328.837 2.83898 337.726C4.46147 346.742 7.10995 355.135 11.2844 363.327C15.3884 371.38 20.7498 378.748 27.1453 385.136C33.5408 391.525 40.9152 396.879 48.9751 400.978C57.1811 405.151 65.587 407.798 74.6189 409.418C83.5134 411.014 92.5868 411.544 101.581 411.786C105.71 411.898 109.84 411.945 113.971 411.97C118.874 412 123.777 411.999 128.681 411.999L185.003 412H227.608L283.822 411.998C288.716 411.998 293.61 412 298.504 411.97C302.626 411.945 306.748 411.898 310.869 411.786C319.849 411.543 328.908 411.014 337.789 409.416C346.798 407.796 355.184 405.15 363.369 400.98C371.415 396.881 378.777 391.526 385.16 385.136C391.543 378.749 396.893 371.382 400.989 363.33C405.158 355.134 407.802 346.738 409.422 337.715C411.017 328.83 411.546 319.767 411.788 310.783C411.9 306.658 411.947 302.533 411.972 298.407C412.002 293.509 412 288.611 412 283.713C412 283.713 411.997 228.492 411.997 227.499V184.499C411.997 183.766 412 128.314 412 128.314" fill="black"/>
<mask id="mask0_1_54" style="mask-type:luminance" maskUnits="userSpaceOnUse" x="0" y="0" width="412" height="412">
<path fill-rule="evenodd" clip-rule="evenodd" d="M412 128.314C412 123.423 412.002 118.531 411.972 113.64C411.947 109.519 411.9 105.4 411.788 101.281C411.546 92.3047 411.016 83.2512 409.42 74.3747C407.801 65.3703 405.157 56.9898 400.991 48.8083C396.895 40.7669 391.544 33.4084 385.16 27.0289C378.778 20.6494 371.417 15.3024 363.373 11.209C355.183 7.04147 346.793 4.39848 337.779 2.77999C328.902 1.186 319.846 0.657498 310.869 0.414999C306.748 0.303499 302.626 0.256499 298.504 0.230999C293.61 0.200999 288.716 0.203499 283.822 0.203499L226.998 0H184.499L128.681 0.203499C123.777 0.203499 118.874 0.200999 113.97 0.230999C109.839 0.256499 105.71 0.303499 101.581 0.414999C92.5833 0.657498 83.5069 1.1865 74.6084 2.78249C65.582 4.40048 57.1801 7.04247 48.9791 11.207C40.9177 15.3009 33.5413 20.6484 27.1453 27.0289C20.7503 33.4079 15.3899 40.7649 11.2864 48.8048C7.10845 56.9903 4.45947 65.3758 2.83648 74.3852C1.23849 83.2582 0.708995 92.3087 0.465497 101.281C0.354497 105.4 0.306498 109.52 0.281498 113.64C0.251498 118.532 0 124.608 0 129.5L0.00149999 184.544L0 227.499L0.253998 283.713C0.253998 288.611 0.251998 293.509 0.281498 298.407C0.306498 302.533 0.354497 306.658 0.465997 310.783C0.708995 319.771 1.23949 328.837 2.83898 337.726C4.46147 346.742 7.10995 355.135 11.2844 363.327C15.3884 371.38 20.7498 378.748 27.1453 385.136C33.5408 391.525 40.9152 396.879 48.9751 400.978C57.1811 405.151 65.587 407.798 74.6189 409.418C83.5134 411.014 92.5868 411.544 101.581 411.786C105.71 411.898 109.84 411.945 113.971 411.97C118.874 412 123.777 411.999 128.681 411.999L185.003 412H227.608L283.822 411.998C288.716 411.998 293.61 412 298.504 411.97C302.626 411.945 306.748 411.898 310.869 411.786C319.849 411.543 328.908 411.014 337.789 409.416C346.798 407.796 355.184 405.15 363.369 400.98C371.415 396.881 378.777 391.526 385.16 385.136C391.543 378.749 396.893 371.382 400.989 363.33C405.158 355.134 407.802 346.738 409.422 337.715C411.017 328.83 411.546 319.767 411.788 310.783C411.9 306.658 411.947 302.533 411.972 298.407C412.002 293.509 412 288.611 412 283.713C412 283.713 411.997 228.492 411.997 227.499V184.499C411.997 183.766 412 128.314 412 128.314" fill="white"/>
</mask>
<g mask="url(#mask0_1_54)">
<path d="M133.024 246.437C125.677 244.207 118.321 239.891 111.873 235.906C106.301 232.461 101.614 228.189 97.561 223.065C95.8939 220.956 94.3167 218.987 93.355 216.492C92.8473 215.168 92.8787 213.23 94.3032 212.602C95.7995 211.942 97.5655 212.445 99.0574 212.979C102.149 214.092 105.128 215.155 108.611 215.236C97.6644 206.267 90.0612 199.635 83.3793 187.063C77.313 175.649 71.9027 159.505 69.8671 146.776C69.4582 144.219 69.265 141.765 69.0179 139.225C68.8876 137.901 69.4762 136.721 70.5861 136.201C73.3047 134.922 75.2909 138.413 77.0479 140.827C80.3237 145.318 84.305 148.97 88.6907 152.376C91.1487 154.287 93.5842 156.001 96.496 157.1C84.2376 141.37 77.5646 122.785 77.6185 102.765C77.632 97.4037 77.9556 92.2573 79.3351 87.0886C79.7979 85.3656 81.1775 81.516 83.5456 81.7448C84.9206 84.1632 85.9496 86.5816 87.1045 89.1704C90.3893 96.5422 94.6492 103.245 100.343 108.962C102.67 111.295 104.814 113.592 107.299 115.674C121.215 127.349 136.776 135.954 153.281 143.375C158.017 145.502 162.529 147.449 166.978 150.07C172.716 153.448 177.223 157.706 177.771 164.714C177.96 167.106 177.758 169.668 177.093 171.916C176.504 173.912 174.684 174.819 172.923 174.253C170.977 173.63 169.09 173.15 167.103 172.688C165.117 172.225 162.781 172.463 161.338 174.078C160.318 175.218 159.743 176.869 159.608 178.449C159.199 183.2 159.59 187.759 160.251 192.51C161.558 201.923 165.571 210.511 171.885 217.56C174.891 220.916 177.767 223.976 181.335 226.753C183.137 228.153 185.145 229.827 187.455 230.37C190.569 230.011 193.058 226.897 193.292 223.949C193.368 222.953 192.627 222.267 191.93 222.163C189.724 221.831 190.376 225.654 187.931 226.812C186.65 227.417 185.15 226.816 184.08 225.896C180.494 222.8 177.964 218.381 177.623 213.643C177.403 210.543 179.317 208.205 182.224 207.649C183.5 207.406 184.835 207.37 186.206 207.438C191.899 207.707 190.079 203.252 195.615 201.156C204.288 197.872 209.181 198.455 217.463 193.726C218.968 192.869 220.689 192.479 222.437 192.806C223.731 193.049 224.711 197.307 222.433 200.384L219.651 204.144C218.676 205.464 218.667 206.854 219.022 208.434L221.498 219.422C222.347 223.2 223.839 229.113 227.057 231.559C230.409 229.683 233.563 228.001 236.475 225.578C241.189 221.656 245.224 216.968 247.997 211.417C252.059 203.283 254.076 194.296 254.198 185.268C254.247 181.679 253.322 178.426 251.632 175.424C250.378 173.199 247.925 172.535 245.512 173.244C243.961 173.702 242.488 174.235 240.825 174.428C239.652 174.563 237.814 174.276 237.257 173.154C233.042 164.683 239.176 155.409 246.24 150.429C250.702 147.283 255.366 144.753 260.264 142.281L277.03 133.823C293.943 125.294 303.969 118.339 316.744 104.224C321.156 99.351 324.554 94.0072 327.322 88.1071C328.301 86.0207 330.004 82.7319 331.519 81L332.026 81.2602L331.613 81.7269C331.114 82.2922 333.042 83.019 333.815 85.747C334.444 87.959 335.015 90.18 335.095 92.4817L335.338 99.342L335.477 108.612C335.558 114.036 335.095 119.443 333.572 124.737C331.083 133.379 327.295 141.37 322.765 149.091C321.21 151.743 319.381 153.964 317.58 156.432L317.359 156.728C317.323 156.777 317.328 156.957 317.386 156.939C317.445 156.921 317.642 156.858 317.728 156.809C324.702 152.95 330.476 147.665 335.325 141.383C336.947 139.279 338.762 137.534 341.162 136.371C341.966 135.981 343.076 137.166 343.332 137.888C344.083 140.019 344.159 142.11 343.768 144.398C342.254 153.246 340.214 161.807 337.441 170.354C334.606 179.09 329.887 187.606 324.891 195.278C318.964 204.378 313.239 208.039 304.962 214.801C308.408 214.881 317.332 210.596 319.467 213.935C321.08 216.456 317.265 221.261 315.432 223.254C305.869 233.654 295.202 241.358 281.532 245.647L270.438 249.124L277.236 250.336C278.562 250.574 279.914 251 281.083 251.588C282.593 252.346 282.939 254.082 282.004 255.487C281.236 256.64 280.121 257.613 278.85 258.376C272.792 262.002 266.128 264.083 259.15 265.331L251.506 266.695C251.281 266.735 250.837 267.099 250.855 267.273C250.922 267.951 252.454 268.202 252.805 269.912C252.935 270.562 252.639 272.003 252.023 272.366L240.187 276.261C233.631 278.419 227.928 282.084 223.039 286.997C228.58 288.617 233.914 289.824 238.03 294.387C243.171 300.09 243.045 309.001 238.142 309.911C236.898 310.14 236.134 309.072 235.253 308.112L231.447 314.735C230.971 315.56 230.171 316.341 229.443 316.884C228.342 317.701 226.944 317.584 226.01 316.637C223.592 314.187 223.988 313.079 221.305 310.912C219.844 311.253 222.729 312.877 223.992 316.193C225.372 319.814 220.096 324.745 217.53 326.795C214.794 328.98 209.028 333 205.479 331.771C202.585 330.771 200.023 329.276 197.736 327.284L192.227 322.488C190.695 321.155 189.369 319.563 188.619 317.786L188.92 317.346L189.131 317.032C190.317 315.273 191.243 313.954 192.097 311.67L191.643 311.706C189.967 313.716 188.578 315.565 187.032 317.633C186.574 318.248 185.536 317.92 184.956 317.535C181.631 315.327 179.506 311.984 178.733 308.005L178.288 307.825C176.814 308.803 175.381 309.404 173.624 309.772C171.035 305.716 172.338 298.766 175.169 295.02C180.063 288.536 191.144 287.917 190.528 287.406C190.43 287.32 190.155 287.096 190.061 287.006C184.197 281.326 177.174 277.378 169.296 275.22C167.166 274.636 161.019 272.891 160.192 271.114C159.864 270.414 159.936 269.167 160.435 268.615L161.931 266.964C157.191 266.609 152.508 265.64 147.772 264.371C142.33 262.917 135.365 260.391 131.771 255.899C131.335 255.357 131.155 254.1 131.353 253.445C131.856 251.772 134.947 251.063 136.538 250.785L142.294 249.784C142.371 249.771 142.73 249.614 142.807 249.582C142.879 249.555 142.726 249.447 142.596 249.344L133.02 246.437H133.024Z" fill="white"/>
</g>
</svg>
